<?xml version="1.0" encoding="UTF-8" standalone="no"?>
<!DOCTYPE svg PUBLIC "-//W3C//DTD SVG 1.1//EN"
 "http://www.w3.org/Graphics/SVG/1.1/DTD/svg11.dtd">
<!-- Generated by graphviz version 14.1.4 (20260321.0153)
 -->
<!-- Title: data_model_validation Pages: 1 -->
<svg width="685pt" height="327pt"
 viewBox="0.00 0.00 685.00 327.00" xmlns="http://www.w3.org/2000/svg" xmlns:xlink="http://www.w3.org/1999/xlink">
<g id="graph0" class="graph" transform="scale(1 1) rotate(0) translate(4 323)">
<title>data_model_validation</title>
<polygon fill="white" stroke="none" points="-4,4 -4,-323 680.75,-323 680.75,4 -4,4"/>
<text xml:space="preserve" text-anchor="middle" x="338.38" y="-301.7" font-family="Helvetica,sans-Serif" font-weight="bold" font-size="14.00">Validation — MVP formats × operations (does the model carry what each needs?)</text>
<!-- m -->
<g id="node1" class="node">
<title>m</title>
<polygon fill="#1f2937" stroke="none" points="8,-252 8,-292 160.25,-292 160.25,-252 8,-252"/>
<polygon fill="none" stroke="black" points="8,-252 8,-292 160.25,-292 160.25,-252 8,-252"/>
<text xml:space="preserve" text-anchor="start" x="60.88" y="-267.2" font-family="Helvetica,sans-Serif" font-weight="bold" font-size="14.00" fill="white">Format</text>
<polygon fill="#1f2937" stroke="none" points="160.25,-252 160.25,-292 212,-292 212,-252 160.25,-252"/>
<polygon fill="none" stroke="black" points="160.25,-252 160.25,-292 212,-292 212,-252 160.25,-252"/>
<text xml:space="preserve" text-anchor="start" x="166.25" y="-273.7" font-family="Helvetica,sans-Serif" font-weight="bold" font-size="14.00" fill="white">Flame</text>
<text xml:space="preserve" text-anchor="start" x="167.38" y="-259.7" font-family="Helvetica,sans-Serif" font-weight="bold" font-size="14.00" fill="white">graph</text>
<polygon fill="#1f2937" stroke="none" points="212,-252 212,-292 262.25,-292 262.25,-252 212,-252"/>
<polygon fill="none" stroke="black" points="212,-252 212,-292 262.25,-292 262.25,-252 212,-252"/>
<text xml:space="preserve" text-anchor="start" x="222.5" y="-273.7" font-family="Helvetica,sans-Serif" font-weight="bold" font-size="14.00" fill="white">Left&#45;</text>
<text xml:space="preserve" text-anchor="start" x="218" y="-259.7" font-family="Helvetica,sans-Serif" font-weight="bold" font-size="14.00" fill="white">heavy</text>
<polygon fill="#1f2937" stroke="none" points="262.25,-252 262.25,-292 314,-292 314,-252 262.25,-252"/>
<polygon fill="none" stroke="black" points="262.25,-252 262.25,-292 314,-292 314,-252 262.25,-252"/>
<text xml:space="preserve" text-anchor="start" x="268.25" y="-273.7" font-family="Helvetica,sans-Serif" font-weight="bold" font-size="14.00" fill="white">Flame</text>
<text xml:space="preserve" text-anchor="start" x="271.62" y="-259.7" font-family="Helvetica,sans-Serif" font-weight="bold" font-size="14.00" fill="white">chart</text>
<polygon fill="#1f2937" stroke="none" points="314,-252 314,-292 363.5,-292 363.5,-252 314,-252"/>
<polygon fill="none" stroke="black" points="314,-252 314,-292 363.5,-292 363.5,-252 314,-252"/>
<text xml:space="preserve" text-anchor="start" x="320" y="-273.7" font-family="Helvetica,sans-Serif" font-weight="bold" font-size="14.00" fill="white">Sand&#45;</text>
<text xml:space="preserve" text-anchor="start" x="323.38" y="-259.7" font-family="Helvetica,sans-Serif" font-weight="bold" font-size="14.00" fill="white">wich</text>
<polygon fill="#1f2937" stroke="none" points="363.5,-252 363.5,-292 429.5,-292 429.5,-252 363.5,-252"/>
<polygon fill="none" stroke="black" points="363.5,-252 363.5,-292 429.5,-292 429.5,-252 363.5,-252"/>
<text xml:space="preserve" text-anchor="start" x="378.88" y="-273.7" font-family="Helvetica,sans-Serif" font-weight="bold" font-size="14.00" fill="white">Auto&#45;</text>
<text xml:space="preserve" text-anchor="start" x="369.5" y="-259.7" font-family="Helvetica,sans-Serif" font-weight="bold" font-size="14.00" fill="white">collapse</text>
<polygon fill="#1f2937" stroke="none" points="429.5,-252 429.5,-292 486.5,-292 486.5,-252 429.5,-252"/>
<polygon fill="none" stroke="black" points="429.5,-252 429.5,-292 486.5,-292 486.5,-252 429.5,-252"/>
<text xml:space="preserve" text-anchor="start" x="435.5" y="-267.2" font-family="Helvetica,sans-Serif" font-weight="bold" font-size="14.00" fill="white">Search</text>
<polygon fill="#1f2937" stroke="none" points="486.5,-252 486.5,-292 521.75,-292 521.75,-252 486.5,-252"/>
<polygon fill="none" stroke="black" points="486.5,-252 486.5,-292 521.75,-292 521.75,-252 486.5,-252"/>
<text xml:space="preserve" text-anchor="start" x="492.88" y="-267.2" font-family="Helvetica,sans-Serif" font-weight="bold" font-size="14.00" fill="white">Diff</text>
<polygon fill="#1f2937" stroke="none" points="521.75,-252 521.75,-292 590,-292 590,-252 521.75,-252"/>
<polygon fill="none" stroke="black" points="521.75,-252 521.75,-292 590,-292 590,-252 521.75,-252"/>
<text xml:space="preserve" text-anchor="start" x="535.62" y="-273.7" font-family="Helvetica,sans-Serif" font-weight="bold" font-size="14.00" fill="white">Metric</text>
<text xml:space="preserve" text-anchor="start" x="527.75" y="-259.7" font-family="Helvetica,sans-Serif" font-weight="bold" font-size="14.00" fill="white">coupling</text>
<polygon fill="#1f2937" stroke="none" points="590,-252 590,-292 668.75,-292 668.75,-252 590,-252"/>
<polygon fill="none" stroke="black" points="590,-252 590,-292 668.75,-292 668.75,-252 590,-252"/>
<text xml:space="preserve" text-anchor="start" x="613.25" y="-273.7" font-family="Helvetica,sans-Serif" font-weight="bold" font-size="14.00" fill="white">Multi</text>
<text xml:space="preserve" text-anchor="start" x="596" y="-259.7" font-family="Helvetica,sans-Serif" font-weight="bold" font-size="14.00" fill="white">value&#45;type</text>
<polygon fill="none" stroke="black" points="8,-225 8,-252 160.25,-252 160.25,-225 8,-225"/>
<text xml:space="preserve" text-anchor="start" x="14" y="-233.7" font-family="Helvetica,sans-Serif" font-weight="bold" font-size="14.00">folded</text>
<polygon fill="#86efac" stroke="none" points="160.25,-225 160.25,-252 212,-252 212,-225 160.25,-225"/>
<polygon fill="none" stroke="black" points="160.25,-225 160.25,-252 212,-252 212,-225 160.25,-225"/>
<text xml:space="preserve" text-anchor="start" x="181.62" y="-234.75" font-family="Helvetica,sans-Serif" font-size="14.00">Y</text>
<polygon fill="#86efac" stroke="none" points="212,-225 212,-252 262.25,-252 262.25,-225 212,-225"/>
<polygon fill="none" stroke="black" points="212,-225 212,-252 262.25,-252 262.25,-225 212,-225"/>
<text xml:space="preserve" text-anchor="start" x="232.62" y="-234.75" font-family="Helvetica,sans-Serif" font-size="14.00">Y</text>
<polygon fill="#fca5a5" stroke="none" points="262.25,-225 262.25,-252 314,-252 314,-225 262.25,-225"/>
<polygon fill="none" stroke="black" points="262.25,-225 262.25,-252 314,-252 314,-225 262.25,-225"/>
<text xml:space="preserve" text-anchor="start" x="283.25" y="-234.75" font-family="Helvetica,sans-Serif" font-size="14.00">N</text>
<polygon fill="#86efac" stroke="none" points="314,-225 314,-252 363.5,-252 363.5,-225 314,-225"/>
<polygon fill="none" stroke="black" points="314,-225 314,-252 363.5,-252 363.5,-225 314,-225"/>
<text xml:space="preserve" text-anchor="start" x="334.25" y="-234.75" font-family="Helvetica,sans-Serif" font-size="14.00">Y</text>
<polygon fill="#86efac" stroke="none" points="363.5,-225 363.5,-252 429.5,-252 429.5,-225 363.5,-225"/>
<polygon fill="none" stroke="black" points="363.5,-225 363.5,-252 429.5,-252 429.5,-225 363.5,-225"/>
<text xml:space="preserve" text-anchor="start" x="392" y="-234.75" font-family="Helvetica,sans-Serif" font-size="14.00">Y</text>
<polygon fill="#86efac" stroke="none" points="429.5,-225 429.5,-252 486.5,-252 486.5,-225 429.5,-225"/>
<polygon fill="none" stroke="black" points="429.5,-225 429.5,-252 486.5,-252 486.5,-225 429.5,-225"/>
<text xml:space="preserve" text-anchor="start" x="453.5" y="-234.75" font-family="Helvetica,sans-Serif" font-size="14.00">Y</text>
<polygon fill="#86efac" stroke="none" points="486.5,-225 486.5,-252 521.75,-252 521.75,-225 486.5,-225"/>
<polygon fill="none" stroke="black" points="486.5,-225 486.5,-252 521.75,-252 521.75,-225 486.5,-225"/>
<text xml:space="preserve" text-anchor="start" x="499.62" y="-234.75" font-family="Helvetica,sans-Serif" font-size="14.00">Y</text>
<polygon fill="#fca5a5" stroke="none" points="521.75,-225 521.75,-252 590,-252 590,-225 521.75,-225"/>
<polygon fill="none" stroke="black" points="521.75,-225 521.75,-252 590,-252 590,-225 521.75,-225"/>
<text xml:space="preserve" text-anchor="start" x="551" y="-234.75" font-family="Helvetica,sans-Serif" font-size="14.00">N</text>
<polygon fill="#fca5a5" stroke="none" points="590,-225 590,-252 668.75,-252 668.75,-225 590,-225"/>
<polygon fill="none" stroke="black" points="590,-225 590,-252 668.75,-252 668.75,-225 590,-225"/>
<text xml:space="preserve" text-anchor="start" x="624.5" y="-234.75" font-family="Helvetica,sans-Serif" font-size="14.00">N</text>
<polygon fill="none" stroke="black" points="8,-198 8,-225 160.25,-225 160.25,-198 8,-198"/>
<text xml:space="preserve" text-anchor="start" x="14" y="-206.7" font-family="Helvetica,sans-Serif" font-weight="bold" font-size="14.00">pprof</text>
<polygon fill="#86efac" stroke="none" points="160.25,-198 160.25,-225 212,-225 212,-198 160.25,-198"/>
<polygon fill="none" stroke="black" points="160.25,-198 160.25,-225 212,-225 212,-198 160.25,-198"/>
<text xml:space="preserve" text-anchor="start" x="181.62" y="-207.75" font-family="Helvetica,sans-Serif" font-size="14.00">Y</text>
<polygon fill="#86efac" stroke="none" points="212,-198 212,-225 262.25,-225 262.25,-198 212,-198"/>
<polygon fill="none" stroke="black" points="212,-198 212,-225 262.25,-225 262.25,-198 212,-198"/>
<text xml:space="preserve" text-anchor="start" x="232.62" y="-207.75" font-family="Helvetica,sans-Serif" font-size="14.00">Y</text>
<polygon fill="#fca5a5" stroke="none" points="262.25,-198 262.25,-225 314,-225 314,-198 262.25,-198"/>
<polygon fill="none" stroke="black" points="262.25,-198 262.25,-225 314,-225 314,-198 262.25,-198"/>
<text xml:space="preserve" text-anchor="start" x="283.25" y="-207.75" font-family="Helvetica,sans-Serif" font-size="14.00">N</text>
<polygon fill="#86efac" stroke="none" points="314,-198 314,-225 363.5,-225 363.5,-198 314,-198"/>
<polygon fill="none" stroke="black" points="314,-198 314,-225 363.5,-225 363.5,-198 314,-198"/>
<text xml:space="preserve" text-anchor="start" x="334.25" y="-207.75" font-family="Helvetica,sans-Serif" font-size="14.00">Y</text>
<polygon fill="#86efac" stroke="none" points="363.5,-198 363.5,-225 429.5,-225 429.5,-198 363.5,-198"/>
<polygon fill="none" stroke="black" points="363.5,-198 363.5,-225 429.5,-225 429.5,-198 363.5,-198"/>
<text xml:space="preserve" text-anchor="start" x="392" y="-207.75" font-family="Helvetica,sans-Serif" font-size="14.00">Y</text>
<polygon fill="#86efac" stroke="none" points="429.5,-198 429.5,-225 486.5,-225 486.5,-198 429.5,-198"/>
<polygon fill="none" stroke="black" points="429.5,-198 429.5,-225 486.5,-225 486.5,-198 429.5,-198"/>
<text xml:space="preserve" text-anchor="start" x="453.5" y="-207.75" font-family="Helvetica,sans-Serif" font-size="14.00">Y</text>
<polygon fill="#86efac" stroke="none" points="486.5,-198 486.5,-225 521.75,-225 521.75,-198 486.5,-198"/>
<polygon fill="none" stroke="black" points="486.5,-198 486.5,-225 521.75,-225 521.75,-198 486.5,-198"/>
<text xml:space="preserve" text-anchor="start" x="499.62" y="-207.75" font-family="Helvetica,sans-Serif" font-size="14.00">Y</text>
<polygon fill="#fca5a5" stroke="none" points="521.75,-198 521.75,-225 590,-225 590,-198 521.75,-198"/>
<polygon fill="none" stroke="black" points="521.75,-198 521.75,-225 590,-225 590,-198 521.75,-198"/>
<text xml:space="preserve" text-anchor="start" x="551" y="-207.75" font-family="Helvetica,sans-Serif" font-size="14.00">N</text>
<polygon fill="#86efac" stroke="none" points="590,-198 590,-225 668.75,-225 668.75,-198 590,-198"/>
<polygon fill="none" stroke="black" points="590,-198 590,-225 668.75,-225 668.75,-198 590,-198"/>
<text xml:space="preserve" text-anchor="start" x="624.88" y="-207.75" font-family="Helvetica,sans-Serif" font-size="14.00">Y</text>
<polygon fill="none" stroke="black" points="8,-171 8,-198 160.25,-198 160.25,-171 8,-171"/>
<text xml:space="preserve" text-anchor="start" x="14" y="-179.7" font-family="Helvetica,sans-Serif" font-weight="bold" font-size="14.00">Chrome .cpuprofile</text>
<polygon fill="#86efac" stroke="none" points="160.25,-171 160.25,-198 212,-198 212,-171 160.25,-171"/>
<polygon fill="none" stroke="black" points="160.25,-171 160.25,-198 212,-198 212,-171 160.25,-171"/>
<text xml:space="preserve" text-anchor="start" x="181.62" y="-180.75" font-family="Helvetica,sans-Serif" font-size="14.00">Y</text>
<polygon fill="#86efac" stroke="none" points="212,-171 212,-198 262.25,-198 262.25,-171 212,-171"/>
<polygon fill="none" stroke="black" points="212,-171 212,-198 262.25,-198 262.25,-171 212,-171"/>
<text xml:space="preserve" text-anchor="start" x="232.62" y="-180.75" font-family="Helvetica,sans-Serif" font-size="14.00">Y</text>
<polygon fill="#86efac" stroke="none" points="262.25,-171 262.25,-198 314,-198 314,-171 262.25,-171"/>
<polygon fill="none" stroke="black" points="262.25,-171 262.25,-198 314,-198 314,-171 262.25,-171"/>
<text xml:space="preserve" text-anchor="start" x="283.62" y="-180.75" font-family="Helvetica,sans-Serif" font-size="14.00">Y</text>
<polygon fill="#86efac" stroke="none" points="314,-171 314,-198 363.5,-198 363.5,-171 314,-171"/>
<polygon fill="none" stroke="black" points="314,-171 314,-198 363.5,-198 363.5,-171 314,-171"/>
<text xml:space="preserve" text-anchor="start" x="334.25" y="-180.75" font-family="Helvetica,sans-Serif" font-size="14.00">Y</text>
<polygon fill="#86efac" stroke="none" points="363.5,-171 363.5,-198 429.5,-198 429.5,-171 363.5,-171"/>
<polygon fill="none" stroke="black" points="363.5,-171 363.5,-198 429.5,-198 429.5,-171 363.5,-171"/>
<text xml:space="preserve" text-anchor="start" x="392" y="-180.75" font-family="Helvetica,sans-Serif" font-size="14.00">Y</text>
<polygon fill="#86efac" stroke="none" points="429.5,-171 429.5,-198 486.5,-198 486.5,-171 429.5,-171"/>
<polygon fill="none" stroke="black" points="429.5,-171 429.5,-198 486.5,-198 486.5,-171 429.5,-171"/>
<text xml:space="preserve" text-anchor="start" x="453.5" y="-180.75" font-family="Helvetica,sans-Serif" font-size="14.00">Y</text>
<polygon fill="#86efac" stroke="none" points="486.5,-171 486.5,-198 521.75,-198 521.75,-171 486.5,-171"/>
<polygon fill="none" stroke="black" points="486.5,-171 486.5,-198 521.75,-198 521.75,-171 486.5,-171"/>
<text xml:space="preserve" text-anchor="start" x="499.62" y="-180.75" font-family="Helvetica,sans-Serif" font-size="14.00">Y</text>
<polygon fill="#86efac" stroke="none" points="521.75,-171 521.75,-198 590,-198 590,-171 521.75,-171"/>
<polygon fill="none" stroke="black" points="521.75,-171 521.75,-198 590,-198 590,-171 521.75,-171"/>
<text xml:space="preserve" text-anchor="start" x="551.38" y="-180.75" font-family="Helvetica,sans-Serif" font-size="14.00">Y</text>
<polygon fill="#fca5a5" stroke="none" points="590,-171 590,-198 668.75,-198 668.75,-171 590,-171"/>
<polygon fill="none" stroke="black" points="590,-171 590,-198 668.75,-198 668.75,-171 590,-171"/>
<text xml:space="preserve" text-anchor="start" x="624.5" y="-180.75" font-family="Helvetica,sans-Serif" font-size="14.00">N</text>
<polygon fill="none" stroke="black" points="8,-144 8,-171 160.25,-171 160.25,-144 8,-144"/>
<text xml:space="preserve" text-anchor="start" x="14" y="-152.7" font-family="Helvetica,sans-Serif" font-weight="bold" font-size="14.00">perf script</text>
<polygon fill="#86efac" stroke="none" points="160.25,-144 160.25,-171 212,-171 212,-144 160.25,-144"/>
<polygon fill="none" stroke="black" points="160.25,-144 160.25,-171 212,-171 212,-144 160.25,-144"/>
<text xml:space="preserve" text-anchor="start" x="181.62" y="-153.75" font-family="Helvetica,sans-Serif" font-size="14.00">Y</text>
<polygon fill="#86efac" stroke="none" points="212,-144 212,-171 262.25,-171 262.25,-144 212,-144"/>
<polygon fill="none" stroke="black" points="212,-144 212,-171 262.25,-171 262.25,-144 212,-144"/>
<text xml:space="preserve" text-anchor="start" x="232.62" y="-153.75" font-family="Helvetica,sans-Serif" font-size="14.00">Y</text>
<polygon fill="#86efac" stroke="none" points="262.25,-144 262.25,-171 314,-171 314,-144 262.25,-144"/>
<polygon fill="none" stroke="black" points="262.25,-144 262.25,-171 314,-171 314,-144 262.25,-144"/>
<text xml:space="preserve" text-anchor="start" x="283.62" y="-153.75" font-family="Helvetica,sans-Serif" font-size="14.00">Y</text>
<polygon fill="#86efac" stroke="none" points="314,-144 314,-171 363.5,-171 363.5,-144 314,-144"/>
<polygon fill="none" stroke="black" points="314,-144 314,-171 363.5,-171 363.5,-144 314,-144"/>
<text xml:space="preserve" text-anchor="start" x="334.25" y="-153.75" font-family="Helvetica,sans-Serif" font-size="14.00">Y</text>
<polygon fill="#86efac" stroke="none" points="363.5,-144 363.5,-171 429.5,-171 429.5,-144 363.5,-144"/>
<polygon fill="none" stroke="black" points="363.5,-144 363.5,-171 429.5,-171 429.5,-144 363.5,-144"/>
<text xml:space="preserve" text-anchor="start" x="392" y="-153.75" font-family="Helvetica,sans-Serif" font-size="14.00">Y</text>
<polygon fill="#86efac" stroke="none" points="429.5,-144 429.5,-171 486.5,-171 486.5,-144 429.5,-144"/>
<polygon fill="none" stroke="black" points="429.5,-144 429.5,-171 486.5,-171 486.5,-144 429.5,-144"/>
<text xml:space="preserve" text-anchor="start" x="453.5" y="-153.75" font-family="Helvetica,sans-Serif" font-size="14.00">Y</text>
<polygon fill="#86efac" stroke="none" points="486.5,-144 486.5,-171 521.75,-171 521.75,-144 486.5,-144"/>
<polygon fill="none" stroke="black" points="486.5,-144 486.5,-171 521.75,-171 521.75,-144 486.5,-144"/>
<text xml:space="preserve" text-anchor="start" x="499.62" y="-153.75" font-family="Helvetica,sans-Serif" font-size="14.00">Y</text>
<polygon fill="#86efac" stroke="none" points="521.75,-144 521.75,-171 590,-171 590,-144 521.75,-144"/>
<polygon fill="none" stroke="black" points="521.75,-144 521.75,-171 590,-171 590,-144 521.75,-144"/>
<text xml:space="preserve" text-anchor="start" x="551.38" y="-153.75" font-family="Helvetica,sans-Serif" font-size="14.00">Y</text>
<polygon fill="#fde68a" stroke="none" points="590,-144 590,-171 668.75,-171 668.75,-144 590,-144"/>
<polygon fill="none" stroke="black" points="590,-144 590,-171 668.75,-171 668.75,-144 590,-144"/>
<text xml:space="preserve" text-anchor="start" x="625.25" y="-153.75" font-family="Helvetica,sans-Serif" font-size="14.00">~</text>
<polygon fill="none" stroke="black" points="8,-117 8,-144 160.25,-144 160.25,-117 8,-117"/>
<text xml:space="preserve" text-anchor="start" x="14" y="-125.7" font-family="Helvetica,sans-Serif" font-weight="bold" font-size="14.00">OTLP Profiles</text>
<polygon fill="#86efac" stroke="none" points="160.25,-117 160.25,-144 212,-144 212,-117 160.25,-117"/>
<polygon fill="none" stroke="black" points="160.25,-117 160.25,-144 212,-144 212,-117 160.25,-117"/>
<text xml:space="preserve" text-anchor="start" x="181.62" y="-126.75" font-family="Helvetica,sans-Serif" font-size="14.00">Y</text>
<polygon fill="#86efac" stroke="none" points="212,-117 212,-144 262.25,-144 262.25,-117 212,-117"/>
<polygon fill="none" stroke="black" points="212,-117 212,-144 262.25,-144 262.25,-117 212,-117"/>
<text xml:space="preserve" text-anchor="start" x="232.62" y="-126.75" font-family="Helvetica,sans-Serif" font-size="14.00">Y</text>
<polygon fill="#86efac" stroke="none" points="262.25,-117 262.25,-144 314,-144 314,-117 262.25,-117"/>
<polygon fill="none" stroke="black" points="262.25,-117 262.25,-144 314,-144 314,-117 262.25,-117"/>
<text xml:space="preserve" text-anchor="start" x="283.62" y="-126.75" font-family="Helvetica,sans-Serif" font-size="14.00">Y</text>
<polygon fill="#86efac" stroke="none" points="314,-117 314,-144 363.5,-144 363.5,-117 314,-117"/>
<polygon fill="none" stroke="black" points="314,-117 314,-144 363.5,-144 363.5,-117 314,-117"/>
<text xml:space="preserve" text-anchor="start" x="334.25" y="-126.75" font-family="Helvetica,sans-Serif" font-size="14.00">Y</text>
<polygon fill="#86efac" stroke="none" points="363.5,-117 363.5,-144 429.5,-144 429.5,-117 363.5,-117"/>
<polygon fill="none" stroke="black" points="363.5,-117 363.5,-144 429.5,-144 429.5,-117 363.5,-117"/>
<text xml:space="preserve" text-anchor="start" x="392" y="-126.75" font-family="Helvetica,sans-Serif" font-size="14.00">Y</text>
<polygon fill="#86efac" stroke="none" points="429.5,-117 429.5,-144 486.5,-144 486.5,-117 429.5,-117"/>
<polygon fill="none" stroke="black" points="429.5,-117 429.5,-144 486.5,-144 486.5,-117 429.5,-117"/>
<text xml:space="preserve" text-anchor="start" x="453.5" y="-126.75" font-family="Helvetica,sans-Serif" font-size="14.00">Y</text>
<polygon fill="#86efac" stroke="none" points="486.5,-117 486.5,-144 521.75,-144 521.75,-117 486.5,-117"/>
<polygon fill="none" stroke="black" points="486.5,-117 486.5,-144 521.75,-144 521.75,-117 486.5,-117"/>
<text xml:space="preserve" text-anchor="start" x="499.62" y="-126.75" font-family="Helvetica,sans-Serif" font-size="14.00">Y</text>
<polygon fill="#86efac" stroke="none" points="521.75,-117 521.75,-144 590,-144 590,-117 521.75,-117"/>
<polygon fill="none" stroke="black" points="521.75,-117 521.75,-144 590,-144 590,-117 521.75,-117"/>
<text xml:space="preserve" text-anchor="start" x="551.38" y="-126.75" font-family="Helvetica,sans-Serif" font-size="14.00">Y</text>
<polygon fill="#86efac" stroke="none" points="590,-117 590,-144 668.75,-144 668.75,-117 590,-117"/>
<polygon fill="none" stroke="black" points="590,-117 590,-144 668.75,-144 668.75,-117 590,-117"/>
<text xml:space="preserve" text-anchor="start" x="624.88" y="-126.75" font-family="Helvetica,sans-Serif" font-size="14.00">Y</text>
<polygon fill="#dbeafe" stroke="none" points="8,-87 8,-117 160.25,-117 160.25,-87 8,-87"/>
<polygon fill="none" stroke="black" points="8,-87 8,-117 160.25,-117 160.25,-87 8,-87"/>
<text xml:space="preserve" text-anchor="start" x="14" y="-97.2" font-family="Helvetica,sans-Serif" font-weight="bold" font-size="14.00">model feature needed</text>
<polygon fill="#eef2f6" stroke="none" points="160.25,-87 160.25,-117 212,-117 212,-87 160.25,-87"/>
<polygon fill="none" stroke="black" points="160.25,-87 160.25,-117 212,-117 212,-87 160.25,-87"/>
<text xml:space="preserve" text-anchor="start" x="173" y="-104.25" font-family="Helvetica,sans-Serif" font-size="8.00">stacks+</text>
<text xml:space="preserve" text-anchor="start" x="172.62" y="-95.25" font-family="Helvetica,sans-Serif" font-size="8.00">weights</text>
<polygon fill="#eef2f6" stroke="none" points="212,-87 212,-117 262.25,-117 262.25,-87 212,-87"/>
<polygon fill="none" stroke="black" points="212,-87 212,-117 262.25,-117 262.25,-87 212,-87"/>
<text xml:space="preserve" text-anchor="start" x="222.12" y="-104.25" font-family="Helvetica,sans-Serif" font-size="8.00">grouped</text>
<text xml:space="preserve" text-anchor="start" x="222.5" y="-95.25" font-family="Helvetica,sans-Serif" font-size="8.00">callnode</text>
<polygon fill="#eef2f6" stroke="none" points="262.25,-87 262.25,-117 314,-117 314,-87 262.25,-87"/>
<polygon fill="none" stroke="black" points="262.25,-87 262.25,-117 314,-117 314,-87 262.25,-87"/>
<text xml:space="preserve" text-anchor="start" x="278.38" y="-99.75" font-family="Helvetica,sans-Serif" font-size="8.00">time[]</text>
<polygon fill="#eef2f6" stroke="none" points="314,-87 314,-117 363.5,-117 363.5,-87 314,-87"/>
<polygon fill="none" stroke="black" points="314,-87 314,-117 363.5,-117 363.5,-87 314,-87"/>
<text xml:space="preserve" text-anchor="start" x="322.25" y="-104.25" font-family="Helvetica,sans-Serif" font-size="8.00">inverted+</text>
<text xml:space="preserve" text-anchor="start" x="324.12" y="-95.25" font-family="Helvetica,sans-Serif" font-size="8.00">frame id</text>
<polygon fill="#eef2f6" stroke="none" points="363.5,-87 363.5,-117 429.5,-117 429.5,-87 363.5,-87"/>
<polygon fill="none" stroke="black" points="363.5,-87 363.5,-117 429.5,-117 429.5,-87 363.5,-87"/>
<text xml:space="preserve" text-anchor="start" x="384.88" y="-104.25" font-family="Helvetica,sans-Serif" font-size="8.00">single&#45;</text>
<text xml:space="preserve" text-anchor="start" x="388.62" y="-95.25" font-family="Helvetica,sans-Serif" font-size="8.00">child</text>
<polygon fill="#eef2f6" stroke="none" points="429.5,-87 429.5,-117 486.5,-117 486.5,-87 429.5,-87"/>
<polygon fill="none" stroke="black" points="429.5,-87 429.5,-117 486.5,-117 486.5,-87 429.5,-87"/>
<text xml:space="preserve" text-anchor="start" x="450.5" y="-104.25" font-family="Helvetica,sans-Serif" font-size="8.00">func</text>
<text xml:space="preserve" text-anchor="start" x="446" y="-95.25" font-family="Helvetica,sans-Serif" font-size="8.00">names</text>
<polygon fill="#eef2f6" stroke="none" points="486.5,-87 486.5,-117 521.75,-117 521.75,-87 486.5,-87"/>
<polygon fill="none" stroke="black" points="486.5,-87 486.5,-117 521.75,-117 521.75,-87 486.5,-87"/>
<text xml:space="preserve" text-anchor="start" x="492.5" y="-104.25" font-family="Helvetica,sans-Serif" font-size="8.00">signed</text>
<text xml:space="preserve" text-anchor="start" x="492.5" y="-95.25" font-family="Helvetica,sans-Serif" font-size="8.00">weight</text>
<polygon fill="#eef2f6" stroke="none" points="521.75,-87 521.75,-117 590,-117 590,-87 521.75,-87"/>
<polygon fill="none" stroke="black" points="521.75,-87 521.75,-117 590,-117 590,-87 521.75,-87"/>
<text xml:space="preserve" text-anchor="start" x="542.75" y="-104.25" font-family="Helvetica,sans-Serif" font-size="8.00">time[] +</text>
<text xml:space="preserve" text-anchor="start" x="533.75" y="-95.25" font-family="Helvetica,sans-Serif" font-size="8.00">MetricSeries</text>
<polygon fill="#eef2f6" stroke="none" points="590,-87 590,-117 668.75,-117 668.75,-87 590,-87"/>
<polygon fill="none" stroke="black" points="590,-87 590,-117 668.75,-117 668.75,-87 590,-87"/>
<text xml:space="preserve" text-anchor="start" x="611.38" y="-104.25" font-family="Helvetica,sans-Serif" font-size="8.00">weightsBy</text>
<text xml:space="preserve" text-anchor="start" x="620.75" y="-95.25" font-family="Helvetica,sans-Serif" font-size="8.00">Type</text>
</g>
<!-- legend -->
<g id="node2" class="node">
<title>legend</title>
<polygon fill="#f1f5f9" stroke="black" points="527.12,-47 143.62,-47 143.62,0 533.12,0 533.12,-41 527.12,-47"/>
<polyline fill="none" stroke="black" points="527.12,-47 527.12,-41"/>
<polyline fill="none" stroke="black" points="533.12,-41 527.12,-41"/>
<text xml:space="preserve" text-anchor="start" x="151.62" y="-34.45" font-family="Helvetica,sans-Serif" font-size="9.00">Y = yes &#160;· &#160;~ = partial (one event/value only) &#160;· &#160;N = not from this format</text>
<text xml:space="preserve" text-anchor="start" x="151.62" y="-24.7" font-family="Helvetica,sans-Serif" font-size="9.00">The Flame&#45;chart + Metric columns are N exactly for the aggregated formats (folded, pprof) —</text>
<text xml:space="preserve" text-anchor="start" x="151.62" y="-14.95" font-family="Helvetica,sans-Serif" font-size="9.00">they carry no per&#45;sample time. That&#39;s the hasTiming flag doing its job, not a model gap.</text>
<text xml:space="preserve" text-anchor="start" x="151.62" y="-5.2" font-family="Helvetica,sans-Serif" font-size="9.00">pprof uniquely carries multi&#45;value; .cpuprofile uniquely (among the easy ones) carries time.</text>
</g>
<!-- m&#45;&gt;legend -->
</g>
</svg>
