<?xml version="1.0" encoding="UTF-8" standalone="no"?>
<!DOCTYPE svg PUBLIC "-//W3C//DTD SVG 1.1//EN"
 "http://www.w3.org/Graphics/SVG/1.1/DTD/svg11.dtd">
<!-- Generated by graphviz version 14.1.4 (20260321.0153)
 -->
<!-- Title: data_model Pages: 1 -->
<svg width="1518pt" height="240pt"
 viewBox="0.00 0.00 1518.00 240.00" xmlns="http://www.w3.org/2000/svg" xmlns:xlink="http://www.w3.org/1999/xlink">
<g id="graph0" class="graph" transform="scale(1 1) rotate(0) translate(4 235.75)">
<title>data_model</title>
<polygon fill="white" stroke="none" points="-4,4 -4,-235.75 1513.5,-235.75 1513.5,4 -4,4"/>
<text xml:space="preserve" text-anchor="middle" x="754.75" y="-213.5" font-family="Helvetica,sans-Serif" font-weight="bold" font-size="15.00">Canonical data model — interned SoA tables + prefix&#45;tree stacks</text>
<!-- strings -->
<g id="node1" class="node">
<title>strings</title>
<polygon fill="#eef6ff" stroke="none" points="1365.5,-109.62 1365.5,-163.38 1501.5,-163.38 1501.5,-109.62 1365.5,-109.62"/>
<polygon fill="#cfe3fb" stroke="none" points="1365.5,-142.12 1365.5,-163.38 1501.5,-163.38 1501.5,-142.12 1365.5,-142.12"/>
<polygon fill="none" stroke="black" points="1365.5,-142.12 1365.5,-163.38 1501.5,-163.38 1501.5,-142.12 1365.5,-142.12"/>
<text xml:space="preserve" text-anchor="start" x="1407.25" y="-149.88" font-family="Helvetica,sans-Serif" font-weight="bold" font-size="10.00">stringTable</text>
<polygon fill="none" stroke="black" points="1365.5,-109.62 1365.5,-142.12 1501.5,-142.12 1501.5,-109.62 1365.5,-109.62"/>
<text xml:space="preserve" text-anchor="start" x="1376.12" y="-128.88" font-family="Helvetica,sans-Serif" font-size="10.00">string[] — all names/paths</text>
<text xml:space="preserve" text-anchor="start" x="1370.5" y="-117.62" font-family="Helvetica,sans-Serif" font-size="10.00">interned; others store indices</text>
</g>
<!-- funcs -->
<g id="node2" class="node">
<title>funcs</title>
<polygon fill="#eef6ff" stroke="none" points="1142.25,-91.88 1142.25,-181.12 1279,-181.12 1279,-91.88 1142.25,-91.88"/>
<polygon fill="#cfe3fb" stroke="none" points="1142.25,-159.88 1142.25,-181.12 1279,-181.12 1279,-159.88 1142.25,-159.88"/>
<polygon fill="none" stroke="black" points="1142.25,-159.88 1142.25,-181.12 1279,-181.12 1279,-159.88 1142.25,-159.88"/>
<text xml:space="preserve" text-anchor="start" x="1187.75" y="-167.62" font-family="Helvetica,sans-Serif" font-weight="bold" font-size="10.00">funcTable</text>
<polygon fill="none" stroke="black" points="1142.25,-113.12 1142.25,-159.88 1279,-159.88 1279,-113.12 1142.25,-113.12"/>
<text xml:space="preserve" text-anchor="start" x="1157.38" y="-145.12" font-family="Helvetica,sans-Serif" font-size="10.00">name : int → stringTable</text>
<text xml:space="preserve" text-anchor="start" x="1147.25" y="-132.38" font-family="Helvetica,sans-Serif" font-size="10.00">file : int → stringTable (or −1)</text>
<text xml:space="preserve" text-anchor="start" x="1158.88" y="-121.12" font-family="Helvetica,sans-Serif" font-size="10.00">line : int (def line, or −1)</text>
<polygon fill="none" stroke="black" points="1142.25,-91.88 1142.25,-113.12 1279,-113.12 1279,-91.88 1142.25,-91.88"/>
<text xml:space="preserve" text-anchor="start" x="1147.25" y="-99.62" font-family="Helvetica,sans-Serif" font-style="italic" font-size="10.00">key: name#file</text>
</g>
<!-- funcs&#45;&gt;strings -->
<g id="edge1" class="edge">
<title>funcs&#45;&gt;strings</title>
<path fill="none" stroke="#737373" d="M1286.71,-136.5C1305.84,-136.5 1326.56,-136.5 1346.2,-136.5"/>
<polygon fill="#737373" stroke="#737373" points="1346.11,-140 1356.11,-136.5 1346.11,-133 1346.11,-140"/>
<text xml:space="preserve" text-anchor="middle" x="1322.25" y="-137.9" font-family="Helvetica,sans-Serif" font-size="8.00">name, file</text>
</g>
<!-- frames -->
<g id="node3" class="node">
<title>frames</title>
<polygon fill="#eef6ff" stroke="none" points="868.12,-92.62 868.12,-180.38 992.88,-180.38 992.88,-92.62 868.12,-92.62"/>
<polygon fill="#cfe3fb" stroke="none" points="868.12,-159.12 868.12,-180.38 992.88,-180.38 992.88,-159.12 868.12,-159.12"/>
<polygon fill="none" stroke="black" points="868.12,-159.12 868.12,-180.38 992.88,-180.38 992.88,-159.12 868.12,-159.12"/>
<text xml:space="preserve" text-anchor="start" x="904.62" y="-166.88" font-family="Helvetica,sans-Serif" font-weight="bold" font-size="10.00">frameTable</text>
<polygon fill="none" stroke="black" points="868.12,-113.88 868.12,-159.12 992.88,-159.12 992.88,-113.88 868.12,-113.88"/>
<text xml:space="preserve" text-anchor="start" x="880.25" y="-144.38" font-family="Helvetica,sans-Serif" font-size="10.00">func : int → funcTable</text>
<text xml:space="preserve" text-anchor="start" x="875.38" y="-133.12" font-family="Helvetica,sans-Serif" font-size="10.00">line : int (call&#45;site, or −1)</text>
<text xml:space="preserve" text-anchor="start" x="873.12" y="-121.88" font-family="Helvetica,sans-Serif" font-size="10.00">inlineDepth : int (0 = real)</text>
<polygon fill="none" stroke="black" points="868.12,-92.62 868.12,-113.88 992.88,-113.88 992.88,-92.62 868.12,-92.62"/>
<text xml:space="preserve" text-anchor="start" x="873.12" y="-100.38" font-family="Helvetica,sans-Serif" font-style="italic" font-size="10.00">key: func#line#inlineDepth</text>
</g>
<!-- frames&#45;&gt;funcs -->
<g id="edge2" class="edge">
<title>frames&#45;&gt;funcs</title>
<path fill="none" stroke="#737373" d="M1000.61,-136.5C1037.65,-136.5 1083.65,-136.5 1123.06,-136.5"/>
<polygon fill="#737373" stroke="#737373" points="1123.01,-140 1133.01,-136.5 1123.01,-133 1123.01,-140"/>
<text xml:space="preserve" text-anchor="middle" x="1108.75" y="-137.9" font-family="Helvetica,sans-Serif" font-size="8.00">func</text>
</g>
<!-- stacks -->
<g id="node4" class="node">
<title>stacks</title>
<polygon fill="#eef6ff" stroke="none" points="552.75,-97.5 552.75,-175.5 700.75,-175.5 700.75,-97.5 552.75,-97.5"/>
<polygon fill="#cfe3fb" stroke="none" points="552.75,-154.25 552.75,-175.5 700.75,-175.5 700.75,-154.25 552.75,-154.25"/>
<polygon fill="none" stroke="black" points="552.75,-154.25 552.75,-175.5 700.75,-175.5 700.75,-154.25 552.75,-154.25"/>
<text xml:space="preserve" text-anchor="start" x="575.75" y="-162" font-family="Helvetica,sans-Serif" font-weight="bold" font-size="10.00">stackTable</text>
<text xml:space="preserve" text-anchor="start" x="625.25" y="-162" font-family="Helvetica,sans-Serif" font-size="10.00"> (prefix tree)</text>
<polygon fill="none" stroke="black" points="552.75,-118.75 552.75,-154.25 700.75,-154.25 700.75,-118.75 552.75,-118.75"/>
<text xml:space="preserve" text-anchor="start" x="572.75" y="-139.5" font-family="Helvetica,sans-Serif" font-size="10.00">frame : int → frameTable</text>
<text xml:space="preserve" text-anchor="start" x="557.75" y="-126.75" font-family="Helvetica,sans-Serif" font-size="10.00">prefix : int → stackTable (or −1)</text>
<polygon fill="none" stroke="black" points="552.75,-97.5 552.75,-118.75 700.75,-118.75 700.75,-97.5 552.75,-97.5"/>
<text xml:space="preserve" text-anchor="start" x="557.75" y="-105.25" font-family="Helvetica,sans-Serif" font-style="italic" font-size="10.00">1 int / sample = scale win</text>
</g>
<!-- stacks&#45;&gt;frames -->
<g id="edge3" class="edge">
<title>stacks&#45;&gt;frames</title>
<path fill="none" stroke="#737373" d="M708.61,-136.5C752.04,-136.5 805.42,-136.5 848.82,-136.5"/>
<polygon fill="#737373" stroke="#737373" points="848.68,-140 858.68,-136.5 848.68,-133 848.68,-140"/>
<text xml:space="preserve" text-anchor="middle" x="749.25" y="-137.9" font-family="Helvetica,sans-Serif" font-size="8.00">frame</text>
</g>
<!-- stacks&#45;&gt;stacks -->
<g id="edge4" class="edge">
<title>stacks&#45;&gt;stacks</title>
<path fill="none" stroke="#737373" d="M604.14,-179.26C605.81,-189.72 613.35,-197.5 626.75,-197.5 635.12,-197.5 641.21,-194.46 645,-189.63"/>
<polygon fill="#737373" stroke="#737373" points="648.13,-191.23 648.77,-180.65 641.67,-188.52 648.13,-191.23"/>
<text xml:space="preserve" text-anchor="middle" x="626.75" y="-200.4" font-family="Helvetica,sans-Serif" font-size="8.00">prefix → parent</text>
</g>
<!-- samples -->
<g id="node5" class="node">
<title>samples</title>
<polygon fill="#e7f7ee" stroke="none" points="244,-47.88 244,-127.12 434.75,-127.12 434.75,-47.88 244,-47.88"/>
<polygon fill="#bfe9d2" stroke="none" points="244,-105.88 244,-127.12 434.75,-127.12 434.75,-105.88 244,-105.88"/>
<polygon fill="none" stroke="black" points="244,-105.88 244,-127.12 434.75,-127.12 434.75,-105.88 244,-105.88"/>
<text xml:space="preserve" text-anchor="start" x="293.62" y="-113.62" font-family="Helvetica,sans-Serif" font-weight="bold" font-size="10.00">samples</text>
<text xml:space="preserve" text-anchor="start" x="332.62" y="-113.62" font-family="Helvetica,sans-Serif" font-size="10.00"> (per thread)</text>
<polygon fill="none" stroke="black" points="244,-47.88 244,-105.88 434.75,-105.88 434.75,-47.88 244,-47.88"/>
<text xml:space="preserve" text-anchor="start" x="286.12" y="-91.12" font-family="Helvetica,sans-Serif" font-size="10.00">stack : int → stackTable</text>
<text xml:space="preserve" text-anchor="start" x="249" y="-78.38" font-family="Helvetica,sans-Serif" font-size="10.00">weightsByType : {ValueType → number[]}</text>
<text xml:space="preserve" text-anchor="start" x="291" y="-67.12" font-family="Helvetica,sans-Serif" font-size="10.00"> &#160;&#160;(signed; multi&#45;value)</text>
<text xml:space="preserve" text-anchor="start" x="273.75" y="-55.88" font-family="Helvetica,sans-Serif" font-size="10.00">time : number[] (iff hasTiming)</text>
</g>
<!-- samples&#45;&gt;stacks -->
<g id="edge5" class="edge">
<title>samples&#45;&gt;stacks</title>
<path fill="none" stroke="#737373" d="M442.6,-105.05C472.38,-110.17 504.72,-115.72 533.83,-120.72"/>
<polygon fill="#737373" stroke="#737373" points="532.87,-124.1 543.32,-122.35 534.06,-117.2 532.87,-124.1"/>
<text xml:space="preserve" text-anchor="middle" x="487.75" y="-117.79" font-family="Helvetica,sans-Serif" font-size="8.00">stack</text>
</g>
<!-- callnode -->
<g id="node7" class="node">
<title>callnode</title>
<polygon fill="#f3e8ff" stroke="none" points="540.75,-6 540.75,-71 712.75,-71 712.75,-6 540.75,-6"/>
<polygon fill="#e2cffb" stroke="none" points="540.75,-49.75 540.75,-71 712.75,-71 712.75,-49.75 540.75,-49.75"/>
<polygon fill="none" stroke="black" points="540.75,-49.75 540.75,-71 712.75,-71 712.75,-49.75 540.75,-49.75"/>
<text xml:space="preserve" text-anchor="start" x="564.88" y="-57.5" font-family="Helvetica,sans-Serif" font-weight="bold" font-size="10.00">CallNodeTable</text>
<text xml:space="preserve" text-anchor="start" x="633.88" y="-57.5" font-family="Helvetica,sans-Serif" font-size="10.00"> (DERIVED)</text>
<polygon fill="none" stroke="black" points="540.75,-6 540.75,-49.75 712.75,-49.75 712.75,-6 540.75,-6"/>
<text xml:space="preserve" text-anchor="start" x="585.88" y="-36.5" font-family="Helvetica,sans-Serif" font-size="10.00">prefix, func, depth,</text>
<text xml:space="preserve" text-anchor="start" x="560.75" y="-25.25" font-family="Helvetica,sans-Serif" font-size="10.00">nextSibling, subtreeRangeEnd</text>
<text xml:space="preserve" text-anchor="start" x="545.75" y="-14" font-family="Helvetica,sans-Serif" font-size="10.00">(typed Int32Array — render structure)</text>
</g>
<!-- samples&#45;&gt;callnode -->
<g id="edge7" class="edge">
<title>samples&#45;&gt;callnode</title>
<path fill="none" stroke="#7c3aed" stroke-dasharray="5,2" d="M442.6,-69.95C468.23,-65.55 495.76,-60.82 521.5,-56.4"/>
<polygon fill="#7c3aed" stroke="#7c3aed" points="522.03,-59.86 531.3,-54.72 520.85,-52.96 522.03,-59.86"/>
<text xml:space="preserve" text-anchor="middle" x="487.75" y="-67.33" font-family="Helvetica,sans-Serif" font-size="8.00" fill="#7c3aed">derived: merge</text>
</g>
<!-- profile -->
<g id="node6" class="node">
<title>profile</title>
<polygon fill="#fff6ee" stroke="none" points="8,-94.75 8,-182.25 138.75,-182.25 138.75,-94.75 8,-94.75"/>
<polygon fill="#fbe1c8" stroke="none" points="8,-161 8,-182.25 138.75,-182.25 138.75,-161 8,-161"/>
<polygon fill="none" stroke="black" points="8,-161 8,-182.25 138.75,-182.25 138.75,-161 8,-161"/>
<text xml:space="preserve" text-anchor="start" x="58" y="-168.75" font-family="Helvetica,sans-Serif" font-weight="bold" font-size="10.00">Profile</text>
<polygon fill="none" stroke="black" points="8,-94.75 8,-161 138.75,-161 138.75,-94.75 8,-94.75"/>
<text xml:space="preserve" text-anchor="start" x="34.75" y="-147.75" font-family="Helvetica,sans-Serif" font-size="10.00">threads : Thread[]</text>
<text xml:space="preserve" text-anchor="start" x="47.5" y="-136.5" font-family="Helvetica,sans-Serif" font-size="10.00">capabilities:</text>
<text xml:space="preserve" text-anchor="start" x="34.38" y="-125.25" font-family="Helvetica,sans-Serif" font-size="10.00"> &#160;hasTiming : bool</text>
<text xml:space="preserve" text-anchor="start" x="13" y="-114" font-family="Helvetica,sans-Serif" font-size="10.00"> &#160;weightTypes : ValueType[]</text>
<text xml:space="preserve" text-anchor="start" x="45.25" y="-102.75" font-family="Helvetica,sans-Serif" font-size="10.00"> &#160;isDiff : bool</text>
</g>
<!-- profile&#45;&gt;samples -->
<g id="edge6" class="edge">
<title>profile&#45;&gt;samples</title>
<path fill="none" stroke="#737373" stroke-dasharray="1,5" d="M146.51,-124.56C170.8,-119.87 198.52,-114.52 225.19,-109.37"/>
<polygon fill="#737373" stroke="#737373" points="225.5,-112.87 234.65,-107.54 224.17,-106 225.5,-112.87"/>
<text xml:space="preserve" text-anchor="middle" x="191.38" y="-121.95" font-family="Helvetica,sans-Serif" font-size="8.00">per thread</text>
</g>
<!-- note -->
<g id="node9" class="node">
<title>note</title>
<polygon fill="#f1f5f9" stroke="black" points="1077.25,-57.5 777.75,-57.5 777.75,-19.5 1083.25,-19.5 1083.25,-51.5 1077.25,-57.5"/>
<polyline fill="none" stroke="black" points="1077.25,-57.5 1077.25,-51.5"/>
<polyline fill="none" stroke="black" points="1083.25,-51.5 1077.25,-51.5"/>
<text xml:space="preserve" text-anchor="start" x="785.75" y="-45.42" font-family="Helvetica,sans-Serif" font-size="8.50">Signed weights → diff for free. &#160;time[] present → flame chart + metric coupling.</text>
<text xml:space="preserve" text-anchor="start" x="785.75" y="-34.92" font-family="Helvetica,sans-Serif" font-size="8.50">hasTiming=false (folded, pprof) → graph&#45;only, gracefully.</text>
<text xml:space="preserve" text-anchor="start" x="785.75" y="-24.43" font-family="Helvetica,sans-Serif" font-size="8.50">CallNodeTable is rebuilt at render time; pruning/virtualization operate on it.</text>
</g>
<!-- callnode&#45;&gt;note -->
<!-- metrics -->
<g id="node8" class="node">
<title>metrics</title>
<polygon fill="#fef9c3" stroke="none" points="21.12,-4 21.12,-69 125.62,-69 125.62,-4 21.12,-4"/>
<polygon fill="#fdf0a8" stroke="none" points="21.12,-47.75 21.12,-69 125.62,-69 125.62,-47.75 21.12,-47.75"/>
<polygon fill="none" stroke="black" points="21.12,-47.75 21.12,-69 125.62,-69 125.62,-47.75 21.12,-47.75"/>
<text xml:space="preserve" text-anchor="start" x="26.12" y="-55.5" font-family="Helvetica,sans-Serif" font-weight="bold" font-size="10.00">MetricSeries</text>
<text xml:space="preserve" text-anchor="start" x="83.88" y="-55.5" font-family="Helvetica,sans-Serif" font-size="10.00"> (sibling)</text>
<polygon fill="none" stroke="black" points="21.12,-4 21.12,-47.75 125.62,-47.75 125.62,-4 21.12,-4"/>
<text xml:space="preserve" text-anchor="start" x="38.5" y="-34.5" font-family="Helvetica,sans-Serif" font-size="10.00">name, unit</text>
<text xml:space="preserve" text-anchor="start" x="28.38" y="-23.25" font-family="Helvetica,sans-Serif" font-size="10.00">time : number[]</text>
<text xml:space="preserve" text-anchor="start" x="26.12" y="-12" font-family="Helvetica,sans-Serif" font-size="10.00">value : number[]</text>
</g>
<!-- metrics&#45;&gt;samples -->
<g id="edge8" class="edge">
<title>metrics&#45;&gt;samples</title>
<path fill="none" stroke="#b59f3b" stroke-dasharray="5,2" d="M133.62,-47.95C160.62,-53.16 193.51,-59.52 224.97,-65.59"/>
<polygon fill="#b59f3b" stroke="#b59f3b" points="224.06,-68.98 234.54,-67.44 225.39,-62.11 224.06,-68.98"/>
<text xml:space="preserve" text-anchor="middle" x="191.38" y="-64.93" font-family="Helvetica,sans-Serif" font-size="8.00" fill="#b59f3b">aligned by time</text>
</g>
</g>
</svg>
